<?xml version="1.0" standalone="no"?>
<!DOCTYPE svg PUBLIC "-//W3C//DTD SVG 20010904//EN"
 "http://www.w3.org/TR/2001/REC-SVG-20010904/DTD/svg10.dtd">
<svg version="1.0" xmlns="http://www.w3.org/2000/svg"
 width="500.000000pt" height="500.000000pt" viewBox="0 0 500.000000 500.000000"
 preserveAspectRatio="xMidYMid meet">
<metadata>
Created by potrace 1.11, written by Peter Selinger 2001-2013
</metadata>
<g transform="translate(0.000000,500.000000) scale(0.100000,-0.100000)"
fill="#000000" stroke="none">
<path d="M1918 4832 c-55 -28 -58 -43 -58 -305 0 -300 4 -310 130 -322 65 -7
142 -40 191 -83 40 -35 85 -112 93 -159 l6 -31 -53 14 c-53 14 -127 28 -207
39 -90 13 -295 7 -405 -11 -768 -127 -1368 -827 -1452 -1694 -13 -137 -6 -441
12 -510 2 -8 7 -34 10 -57 13 -94 71 -317 95 -368 5 -11 18 -43 29 -72 73
-191 220 -421 381 -597 115 -126 318 -276 488 -361 96 -48 296 -118 367 -129
22 -4 69 -12 105 -18 47 -9 279 -12 830 -12 815 0 861 2 1015 41 33 8 67 16
75 18 8 2 51 16 95 33 288 106 533 284 732 532 120 149 244 357 292 490 7 19
17 44 22 55 53 123 111 375 126 551 12 151 7 393 -12 496 -2 9 -7 38 -10 65
-4 26 -14 75 -22 108 -7 33 -16 70 -19 82 -9 43 -71 219 -103 292 -265 601
-776 997 -1375 1066 -74 9 -201 9 -296 1 l-86 -7 -2 33 c-8 100 -62 256 -127
368 -89 150 -267 311 -420 380 -164 72 -377 107 -447 72z"/>
</g>
</svg>
